<svg width="46" height="41" viewBox="0 0 46 41" fill="none" xmlns="http://www.w3.org/2000/svg">
<path d="M0 26L22.5 13.0096L22.5 38.9904L0 26Z" fill="#FF9900"/>
<path d="M46 26L22.75 38.9904L22.75 13.0096L46 26Z" fill="#FF6F00"/>
<rect x="10" y="6" width="5" height="16" fill="#FF9900"/>
<rect x="30" y="6" width="5" height="16" fill="#FF6F00"/>
<path d="M12.5 0L15.0981 6H9.90192L12.5 0Z" fill="#FF9900"/>
<path d="M32.56 0L35.1581 6H29.9619L32.56 0Z" fill="#FF6F00"/>
<path d="M15 21L17.2 22.1895L19.3301 23.5L19.4 26L19.3301 28.5L17.2 29.8105L15 31L12.8 29.8105L10.6699 28.5L10.6 26L10.6699 23.5L12.8 22.1895L15 21Z" fill="white"/>
<path d="M30 21L32.2 22.1895L34.3301 23.5L34.4 26L34.3301 28.5L32.2 29.8105L30 31L27.8 29.8105L25.6699 28.5L25.6 26L25.6699 23.5L27.8 22.1895L30 21Z" fill="white"/>
</svg>
